<svg height="512pt" viewBox="-19 0 512 512" width="512pt" xmlns="http://www.w3.org/2000/svg"><path d="m352.859375 121.289062c-13.523437-14.671874-34.296875-16.542968-50.5625-4.5625l-141.90625 102.925782c-4.976563 2.890625-8.859375 5-12.75 5.863281-.453125.09375-.886719.179687-1.296875.257813 1.414062-4.722657 3.1875-10.257813 4.929688-15.671876 6.445312-20.089843 9.210937-29.308593 9.300781-35.527343.679687-12.636719.148437-28.972657-9.53125-44.050781l-.078125-.121094c-5.261719-8.027344-15.644532-15.519532-24.695313-17.8125-9.800781-2.484375-18.1875-1.585938-24.925781 2.671875-6.554688 4.144531-10.824219 10.945312-12.683594 20.214843-4.511718 21.058594-12.546875 42.765626-24.566406 66.359376-2.058594 3.960937-4.082031 8.527343-6.042969 12.949218-2.484375 5.609375-5.054687 11.414063-7.511719 15.5625l-.132812.230469c-9.464844 16.667969-11.871094 32.40625-12.902344 44.195313-.046875.496093-4.882812 49.933593-30.070312 91.519531-12.320313 20.480469-9.085938 46.742187 7.914062 63.914062l72.527344 72.527344.675781.636719c6.484375 5.726562 14.683594 8.628906 22.867188 8.628906 7 0 13.984375-2.125 19.855469-6.433594l8.039062-5.816406c4.105469-2.972656 8.425781-5.738281 12.917969-8.269531 8.53125-4.804688 17.25-8.578125 25.921875-11.226563 38.558594-11.769531 75.738281-34.167968 100.3125-51.03125 7.488281-4.402344 12.5-11.992187 14.15625-21.484375l.109375-.738281c8.65625-70.015625-12.617188-130.1875-22.46875-153.410156l80.304687-80.28125c14.238282-14.25 15.421875-36.386719 2.753906-51.492188zm0 0"/><path d="m395.226562 76.078125c-33.496093-33.496094-88.003906-33.496094-121.5 0-5.863281 5.863281-5.863281 15.367187 0 21.226563 5.859376 5.859374 15.363282 5.859374 21.222657 0 21.796875-21.792969 57.257812-21.792969 79.054687 0 21.792969 21.796874 21.792969 57.257812 0 79.054687-5.863281 5.859375-5.863281 15.363281 0 21.222656 2.929688 2.929688 6.769532 4.398438 10.613282 4.398438 3.839843 0 7.679687-1.46875 10.609374-4.398438 33.5-33.5 33.5-88.003906 0-121.503906zm0 0"/><path d="m433.765625 40.734375c-26.265625-26.269531-61.191406-40.734375-98.34375-40.734375-37.148437 0-72.074219 14.464844-98.34375 40.734375-5.859375 5.863281-5.859375 15.363281 0 21.226563 5.863281 5.859374 15.363281 5.859374 21.226563 0 20.601562-20.597657 47.988281-31.945313 77.117187-31.945313 29.132813 0 56.519531 11.347656 77.121094 31.945313 42.523437 42.523437 42.523437 111.710937 0 154.234374-5.863281 5.863282-5.863281 15.363282 0 21.226563 2.929687 2.929687 6.769531 4.394531 10.609375 4.394531s7.683594-1.464844 10.613281-4.394531c54.226563-54.226563 54.226563-142.460937 0-196.6875zm0 0"/></svg>